<svg xmlns="http://www.w3.org/2000/svg" viewBox="0 0 4002.44 883.11"><defs><style>.cls-1{fill:#1c1;}.cls-2{fill:#f4e84a;}.cls-3{fill:#111;}.cls-4{fill:#231f20;}.cls-5,.cls-7{font-size:545.18px;font-family:MyriadPro-Regular, Myriad Pro;}.cls-6{letter-spacing:-0.02em;}.cls-7{fill:#37b34a;}.cls-8{letter-spacing:-0.04em;}</style></defs><g id="Layer_2" data-name="Layer 2"><g id="Layer_1-2" data-name="Layer 1"><path class="cls-1" d="M538.33,538.74H681V403.84a24.6,24.6,0,1,1,49.2,0v134.9H872.81L705.57,300.87Z"/><circle class="cls-2" cx="466.6" cy="113.2" r="64.01"/><path class="cls-3" d="M466.6,226.41A113.21,113.21,0,1,0,353.4,113.2,113.23,113.23,0,0,0,466.6,226.41Zm0-177.22a64,64,0,1,1-64,64A63.92,63.92,0,0,1,466.6,49.19Z"/><path class="cls-3" d="M331.93,735.52H276.31a24.6,24.6,0,1,0,0,49.2h55.62a24.6,24.6,0,0,0,0-49.2Z"/><path class="cls-3" d="M1007.26,637.13H932.53a24.6,24.6,0,0,0,0,49.2h74.73a24.6,24.6,0,0,0,0-49.2Z"/><path class="cls-3" d="M1106,538.74H932.83L735.58,258.19l60.26-85.72a24.54,24.54,0,1,0-40.15-28.24l-50.12,71.28-50.11-71.28a24.55,24.55,0,1,0-40.16,28.24l60.26,85.72L478.31,538.74H303.7V447.33l59.51,50.83a24.53,24.53,0,1,0,31.9-37.27L303.7,382.82V353.41l37.93,32.52a24.53,24.53,0,1,0,31.9-37.27L303.7,288.79V263.36l10.69,8.94a24.55,24.55,0,1,0,31.51-37.66L296,192.86a24.59,24.59,0,0,0-33.7,0L212.3,234.64a24.55,24.55,0,0,0,31.51,37.66l10.69-8.94v25.43l-69.83,59.87a24.53,24.53,0,0,0,31.9,37.27l37.93-32.52v29.41l-91.4,78.07A24.53,24.53,0,1,0,195,498.16l59.5-50.83v91.41H24.6a24.6,24.6,0,0,0,0,49.2h256a24.6,24.6,0,0,1,0,49.19H157.11a24.6,24.6,0,1,0,0,49.2H669.46a24.6,24.6,0,1,1,0,49.19h-222a24.6,24.6,0,0,0,0,49.2H506a24.6,24.6,0,1,1,0,49.19H391.19a24.6,24.6,0,1,0,0,49.2H682.58a24.6,24.6,0,0,0,0-49.2H645.23a24.6,24.6,0,1,1,0-49.19h257a24.6,24.6,0,0,0,0-49.2H808.7a24.6,24.6,0,1,1,0-49.19h28.58a24.6,24.6,0,0,0,0-49.2H419.86a24.6,24.6,0,1,1,0-49.19H1106a24.6,24.6,0,0,0,0-49.2Zm-375.79,0V403.84a24.6,24.6,0,1,0-49.2,0v134.9H538.33L705.57,300.87,872.81,538.74Z"/><path class="cls-3" d="M810.05,833.91H754.42a24.6,24.6,0,0,0,0,49.2h55.63a24.6,24.6,0,0,0,0-49.2Z"/><rect class="cls-4" x="1231.62" width="98.18" height="883.11" rx="49.09"/><text class="cls-5" transform="translate(1430.86 601.56)"><tspan class="cls-6">P</tspan><tspan x="281.32" y="0">indah</tspan></text><text class="cls-7" transform="translate(2976.97 601.56)"><tspan class="cls-8">T</tspan><tspan x="246.42" y="0">uru</tspan></text></g></g></svg>